<svg viewBox="-239 241 32 32" xml:space="preserve" xmlns="http://www.w3.org/2000/svg" enable-background="new -239 241 32 32"><circle cx="-223" cy="257" r="15.1" fill="#290033" class="fill-dc4d3f"></circle><path d="M-220.7 255.9h-6.3v2h3.8c-.4 1.9-2.1 3.3-4.1 3.3-2.3 0-4.2-1.9-4.2-4.2 0-2.3 1.9-4.2 4.2-4.2 1.1 0 2.1.4 2.9 1.2l1.7-1.7c-1.2-1.2-2.9-1.9-4.6-1.9-3.6 0-6.6 3-6.6 6.6 0 3.6 3 6.6 6.6 6.6s6.6-3 6.6-6.6v-1.1zM-212.4 256.2h-2.2V254h-2.1v2.2h-2.2v2.1h2.2v2.2h2.1v-2.2h2.2z" fill="#ffffff" class="fill-ffffff"></path></svg>